<svg xmlns="http://www.w3.org/2000/svg" xmlns:xlink="http://www.w3.org/1999/xlink" viewBox="0 0 48 48" version="1.1">
<g id="surface1">
<path style=" fill:#4FC3F7;" d="M 29 31 C 29 31 28 35 24 35 C 20 35 19 31 19 31 C 19 31 8 32.984375 8 44 L 40 44 C 40 33.023438 29 31 29 31 "/>
<path style=" fill:#FF9800;" d="M 24 37 C 19 37 19 31 19 31 L 19 25 L 29 25 L 29 31 C 29 31 29 37 24 37 Z "/>
<path style=" fill:#FFA726;" d="M 35 19 C 35 20.105469 34.105469 21 33 21 C 31.894531 21 31 20.105469 31 19 C 31 17.894531 31.894531 17 33 17 C 34.105469 17 35 17.894531 35 19 "/>
<path style=" fill:#FFA726;" d="M 17 19 C 17 20.105469 16.105469 21 15 21 C 13.894531 21 13 20.105469 13 19 C 13 17.894531 13.894531 17 15 17 C 16.105469 17 17 17.894531 17 19 "/>
<path style=" fill:#FFB74D;" d="M 33 13 C 33 5.363281 15 8.027344 15 13 L 15 20 C 15 24.972656 19.027344 29 24 29 C 28.972656 29 33 24.972656 33 20 Z "/>
<path style=" fill:#424242;" d="M 24 4 C 17.925781 4 14 8.925781 14 15 L 14 17.285156 L 16 19 L 16 14 L 28 10 L 32 14 L 32 19 L 34 17.257813 L 34 15 C 34 10.976563 32.960938 6.984375 28 6 L 27 4 Z "/>
<path style=" fill:#784719;" d="M 27 19 C 27 19.550781 27.449219 20 28 20 C 28.550781 20 29 19.550781 29 19 C 29 18.449219 28.550781 18 28 18 C 27.449219 18 27 18.449219 27 19 "/>
<path style=" fill:#784719;" d="M 19 19 C 19 19.550781 19.449219 20 20 20 C 20.550781 20 21 19.550781 21 19 C 21 18.449219 20.550781 18 20 18 C 19.449219 18 19 18.449219 19 19 "/>
<path style=" fill:#01579B;" d="M 24 37 C 29 37 30.746094 33.070313 30.949219 31.570313 C 29.792969 31.148438 29 31 29 31 C 29 31 28 35 24 35 C 20 35 19 31 19 31 C 19 31 18.207031 31.144531 17.046875 31.566406 C 17.253906 33.0625 19 37 24 37 Z "/>
</g>
</svg>