<svg xmlns="http://www.w3.org/2000/svg" xmlns:xlink="http://www.w3.org/1999/xlink" viewBox="0 0 48 48" version="1.1">
<g id="surface1">
<path style=" fill:#FFA726;" d="M 23 23.5 C 23 24.328125 22.328125 25 21.5 25 C 20.671875 25 20 24.328125 20 23.5 C 20 22.671875 20.671875 22 21.5 22 C 22.328125 22 23 22.671875 23 23.5 M 10 23.5 C 10 22.671875 9.328125 22 8.5 22 C 7.671875 22 7 22.671875 7 23.5 C 7 24.328125 7.671875 25 8.5 25 C 9.328125 25 10 24.328125 10 23.5 "/>
<path style=" fill:#EF8D3C;" d="M 41 17.5 C 41 18.328125 40.328125 19 39.5 19 C 38.671875 19 38 18.328125 38 17.5 C 38 16.671875 38.671875 16 39.5 16 C 40.328125 16 41 16.671875 41 17.5 M 28 17.5 C 28 16.671875 27.328125 16 26.5 16 C 25.671875 16 25 16.671875 25 17.5 C 25 18.328125 25.671875 19 26.5 19 C 27.328125 19 28 18.328125 28 17.5 "/>
<path style=" fill:#2196F3;" d="M 36.75 26 L 33 26.769531 L 29.25 26 C 29.25 26 21 27.527344 21 36 L 45 36 C 45 27.558594 36.75 26 36.75 26 "/>
<path style=" fill:#EF8D3C;" d="M 33 30 C 29 30 29 26 29 26 L 29 22 L 37 22 L 37 26 C 37 26 37 30 33 30 Z "/>
<path style=" fill:#FFAA45;" d="M 40 12 C 40 6.121094 26 8.171875 26 12 L 26 18.070313 C 26 21.894531 29.132813 25 33 25 C 36.867188 25 40 21.894531 40 18.070313 Z "/>
<path style=" fill:#FF9800;" d="M 19 32 C 19 32 19 36 15 36 C 11 36 11 32 11 32 "/>
<path style=" fill:#4FC3F7;" d="M 18.75 32 L 15 32.769531 L 11.25 32 C 11.25 32 3 33.527344 3 42 L 27 42 C 27 33.558594 18.75 32 18.75 32 "/>
<path style=" fill:#0D47A1;" d="M 33.050781 32 C 36.109375 32 38.628906 29.707031 39 26.75 C 38.117188 26.351563 37.398438 26.144531 37.046875 26.058594 C 37.015625 28.238281 35.242188 30 33.050781 30 C 30.859375 30 29.089844 28.238281 29.058594 26.054688 C 28.703125 26.140625 27.988281 26.347656 27.101563 26.742188 C 27.46875 29.703125 29.988281 32 33.050781 32 Z "/>
<path style=" fill:#FF9800;" d="M 15 36 C 11 36 11 32 11 32 L 11 28 L 19 28 L 19 32 C 19 32 19 36 15 36 Z "/>
<path style=" fill:#FFB74D;" d="M 22 19.679688 C 22 13.800781 8 15.851563 8 19.679688 L 8 24.070313 C 8 27.894531 11.132813 31 15 31 C 18.867188 31 22 27.894531 22 24.070313 Z "/>
<path style=" fill:#01579B;" d="M 15 38 C 18.058594 38 20.578125 35.707031 20.949219 32.75 C 20.0625 32.351563 19.34375 32.144531 18.992188 32.058594 C 18.964844 34.238281 17.191406 36 15 36 C 12.808594 36 11.035156 34.238281 11.007813 32.054688 C 10.652344 32.140625 9.933594 32.347656 9.050781 32.742188 C 9.417969 35.703125 11.9375 38 15 38 Z "/>
<path style=" fill:#424242;" d="M 33 6 C 28.140625 6 25 10.3125 25 14.171875 L 25 16 L 27 18 L 27 14 L 36.199219 11 L 39 14 L 39 18 L 41 16 L 41 15.191406 C 41 11.972656 40.167969 8.386719 36.199219 7.597656 L 35.398438 6 Z "/>
<path style=" fill:#795548;" d="M 15 12 C 10.140625 12 7 16.3125 7 20.171875 L 7 22 L 9 24 L 9 20 L 18.199219 17 L 21 20 L 21 24 L 23 22 L 23 21.191406 C 23 17.972656 22.167969 14.386719 18.199219 13.597656 L 17.398438 12 Z "/>
<path style=" fill:#784719;" d="M 35 17 C 35 16.449219 35.449219 16 36 16 C 36.550781 16 37 16.449219 37 17 C 37 17.550781 36.550781 18 36 18 C 35.449219 18 35 17.550781 35 17 M 29 17 C 29 17.550781 29.449219 18 30 18 C 30.550781 18 31 17.550781 31 17 C 31 16.449219 30.550781 16 30 16 C 29.449219 16 29 16.449219 29 17 "/>
<path style=" fill:#784719;" d="M 17 23 C 17 22.449219 17.449219 22 18 22 C 18.550781 22 19 22.449219 19 23 C 19 23.550781 18.550781 24 18 24 C 17.449219 24 17 23.550781 17 23 M 11 23 C 11 23.550781 11.449219 24 12 24 C 12.550781 24 13 23.550781 13 23 C 13 22.449219 12.550781 22 12 22 C 11.449219 22 11 22.449219 11 23 "/>
</g>
</svg>