<?xml version="1.0" encoding="iso-8859-1"?>
<!-- Generator: Adobe Illustrator 19.0.0, SVG Export Plug-In . SVG Version: 6.00 Build 0)  -->
<svg version="1.1" id="Layer_1" xmlns="http://www.w3.org/2000/svg" xmlns:xlink="http://www.w3.org/1999/xlink" x="0px" y="0px"
	 viewBox="0 0 512 512" style="enable-background:new 0 0 512 512;" xml:space="preserve">
<path style="fill:#FFFFFF;" d="M172.8,438.4c-54.4,0-98.133-43.733-98.133-98.133s43.733-98.133,98.133-98.133
	s98.133,43.733,98.133,98.133C269.867,394.667,226.133,438.4,172.8,438.4z"/>
<rect x="152.533" y="395.733" style="fill:#CED6E0;" width="39.467" height="35.2"/>
<g>
	<polygon style="fill:#F3705A;" points="180.267,406.4 188.8,398.933 172.8,384 156.8,398.933 164.267,406.4 	"/>
	<polygon style="fill:#F3705A;" points="187.733,440.533 180.267,406.4 164.267,406.4 156.8,440.533 	"/>
</g>
<path style="fill:#F7B64C;" d="M150.4,357.333v9.6c5.333,7.467,11.733,12.8,21.333,17.067c8.533-3.2,16-8.533,21.333-17.067v-9.6
	H150.4z"/>
<g>
	<path style="fill:#FFD15C;" d="M210.133,330.667c-1.067,6.4-5.333,11.733-9.6,10.667c-3.2-1.067-5.333-6.4-4.267-13.867
		c1.067-6.4,5.333-11.733,9.6-10.667C209.067,317.867,211.2,324.267,210.133,330.667z"/>
	<path style="fill:#FFD15C;" d="M135.467,330.667c1.067,6.4,5.333,11.733,9.6,10.667c3.2-1.067,5.333-6.4,4.267-13.867
		c-1.067-6.4-5.333-11.733-9.6-10.667S133.333,324.267,135.467,330.667z"/>
</g>
<path style="fill:#415A6B;" d="M200.533,337.067C204.8,325.333,208,312.533,208,304c0-19.2-16-35.2-35.2-35.2
	c-19.2,0-35.2,16-35.2,35.2c0,8.533,3.2,20.267,7.467,33.067H200.533z"/>
<path style="fill:#FFD15C;" d="M170.667,300.8c-5.333,0-9.6,0-13.867-1.067c-8.533-2.133-17.067,5.333-17.067,13.867v12.8
	c0,23.467,14.933,43.733,32,43.733c18.133,0,32-19.2,32-43.733v-12.8c0-9.6-8.533-16-17.067-13.867
	C182.4,300.8,176,300.8,170.667,300.8z"/>
<polygon style="fill:#F3F3F3;" points="194.133,366.933 172.8,384 188.8,406.4 199.467,379.733 "/>
<path style="fill:#344A5E;" d="M253.867,440.533l-2.133-21.333c-1.067-11.733-8.533-21.333-19.2-26.667L201.6,377.6l-18.133,62.933
	H253.867z"/>
<polygon style="fill:#415A6B;" points="201.6,440.533 215.467,412.8 201.6,403.2 219.733,400 197.333,373.333 181.333,440.533 "/>
<polygon style="fill:#F3F3F3;" points="150.4,366.933 172.8,384 155.733,406.4 145.067,379.733 "/>
<path style="fill:#344A5E;" d="M162.133,440.533L144,377.6l-30.933,14.933c-10.667,4.267-18.133,14.933-19.2,26.667l-2.133,21.333
	H162.133z"/>
<polygon style="fill:#415A6B;" points="129.067,412.8 142.933,440.533 164.267,440.533 148.267,373.333 125.867,400 142.933,403.2 
	"/>
<path style="fill:#55C0EB;" d="M344.533,369.067v-57.6l-44.8-11.733C297.6,292.267,294.4,284.8,291.2,278.4l24.533-39.467
	L275.2,198.4l-39.467,24.533c-6.4-3.2-13.867-6.4-21.333-8.533l-11.733-44.8h-57.6L134.4,214.4
	c-7.467,2.133-14.933,5.333-21.333,8.533L73.6,199.467L33.067,240L57.6,279.467c-3.2,6.4-6.4,13.867-8.533,21.333L0,311.467v57.6
	l44.8,10.667c2.133,7.467,5.333,14.933,8.533,21.333l-23.467,39.467L70.4,481.067l39.467-23.467c6.4,3.2,13.867,6.4,21.333,8.533
	l10.667,44.8h57.6l11.733-44.8c7.467-2.133,14.933-5.333,21.333-8.533L272,482.133l40.533-40.533l-23.467-39.467
	c3.2-6.4,6.4-13.867,8.533-21.333L344.533,369.067z M172.8,438.4c-54.4,0-98.133-43.733-98.133-98.133s43.733-98.133,98.133-98.133
	s98.133,43.733,98.133,98.133C269.867,394.667,226.133,438.4,172.8,438.4z"/>
<path style="fill:#FFFFFF;" d="M357.333,190.933C323.2,176,307.2,136.533,321.067,102.4s54.4-50.133,88.533-36.267
	c34.133,14.933,50.133,54.4,36.267,88.533C432,188.8,392.533,205.867,357.333,190.933z"/>
<path style="fill:#F3705A;" d="M433.067,169.6H336l0,0c9.6-17.067,14.933-35.2,14.933-55.467v-6.4
	c0-18.133,14.933-33.067,33.067-33.067l0,0c18.133,0,33.067,14.933,33.067,33.067v7.467C417.067,134.4,422.4,152.533,433.067,169.6
	L433.067,169.6z"/>
<path style="fill:#F7B64C;" d="M436.267,201.6v-24.533c0-6.4-3.2-11.733-9.6-14.933c-7.467-3.2-14.933-5.333-22.4-6.4
	c-3.2,0-4.267-3.2-4.267-5.333v-18.133l-16-11.733l-14.933,11.733V150.4c0,3.2-2.133,5.333-4.267,5.333
	c-7.467,1.067-14.933,3.2-22.4,6.4c-6.4,2.133-9.6,8.533-9.6,14.933V201.6H436.267z"/>
<g>
	<path style="fill:#FFD15C;" d="M412.8,122.667c-1.067,5.333-4.267,8.533-7.467,8.533s-4.267-5.333-3.2-10.667
		C403.2,115.2,406.4,112,409.6,112C412.8,112,413.867,117.333,412.8,122.667z"/>
	<path style="fill:#FFD15C;" d="M356.267,122.667c1.067,5.333,4.267,8.533,7.467,8.533s4.267-5.333,3.2-10.667
		c-1.067-5.333-4.267-8.533-7.467-8.533C356.267,112,354.133,117.333,356.267,122.667z"/>
</g>
<path style="fill:#66C6B9;" d="M436.267,201.6v-24.533c0-6.4-4.267-12.8-9.6-14.933c-6.4-2.133-12.8-4.267-20.267-6.4
	c-1.067,11.733-22.4,21.333-22.4,21.333s-21.333-8.533-22.4-20.267c-6.4,1.067-13.867,3.2-20.267,6.4
	c-6.4,2.133-9.6,8.533-9.6,14.933v24.533h104.533V201.6z"/>
<path style="fill:#FFD15C;" d="M384,101.333c-7.467,0-13.867-1.067-19.2-3.2c-3.2,5.333-5.333,12.8-5.333,20.267
	c0,18.133,10.667,32,24.533,32c13.867,0,24.533-13.867,24.533-32c0-7.467-2.133-14.933-5.333-20.267
	C397.867,100.267,391.467,101.333,384,101.333z"/>
<path style="fill:#415A6B;" d="M501.333,193.067L512,168.533l-33.067-28.8c1.067-6.4,1.067-12.8,0-19.2L512,91.733L502.4,67.2
	l-43.733,2.133c-4.267-5.333-8.533-9.6-13.867-13.867l3.2-43.733L423.467,1.067l-28.8,33.067c-6.4-1.067-12.8-1.067-19.2,0
	l-28.8-33.067l-24.533,9.6l2.133,43.733c-5.333,4.267-9.6,8.533-13.867,13.867l-43.733-3.2L256,89.6l33.067,28.8
	c-1.067,6.4-1.067,12.8,0,19.2L256,166.4l9.6,24.533l43.733-3.2c4.267,5.333,8.533,9.6,13.867,13.867l-3.2,44.8l24.533,10.667
	l28.8-33.067c6.4,1.067,12.8,1.067,19.2,0l28.8,33.067l24.533-9.6l-2.133-43.733c5.333-4.267,9.6-8.533,13.867-13.867
	L501.333,193.067z M357.333,190.933C323.2,176,307.2,136.533,321.067,102.4s54.4-50.133,88.533-36.267
	c34.133,14.933,50.133,54.4,36.267,88.533C432,188.8,392.533,205.867,357.333,190.933z"/>
<g>
</g>
<g>
</g>
<g>
</g>
<g>
</g>
<g>
</g>
<g>
</g>
<g>
</g>
<g>
</g>
<g>
</g>
<g>
</g>
<g>
</g>
<g>
</g>
<g>
</g>
<g>
</g>
<g>
</g>
</svg>
