<?xml version="1.0" encoding="UTF-8"?>
<svg xmlns="http://www.w3.org/2000/svg" xmlns:xlink="http://www.w3.org/1999/xlink" viewBox="0 0 24 24" version="1.1">
<g id="surface299748">
<path style=" stroke:none;fill-rule:nonzero;fill:rgb(100%,100%,100%);fill-opacity:1;" d="M 12 1 C 8.675781 1 6 3.675781 6 7 L 6 9.722656 C 4.757812 11.128906 4 12.972656 4 15 C 4 19.417969 7.582031 23 12 23 C 16.417969 23 20 19.417969 20 15 C 20 12.972656 19.242188 11.128906 18 9.722656 L 18 7 C 18 3.675781 15.324219 1 12 1 Z M 12 3 C 14.277344 3 16 4.722656 16 7 L 16 8.082031 C 14.820312 7.398438 13.460938 7 12 7 C 10.539062 7 9.179688 7.398438 8 8.082031 L 8 7 C 8 4.722656 9.722656 3 12 3 Z M 12 9 C 15.3125 9 18 11.6875 18 15 C 18 18.3125 15.3125 21 12 21 C 8.6875 21 6 18.3125 6 15 C 6 11.6875 8.6875 9 12 9 Z M 12 12 C 10.898438 12 10 12.898438 10 14 C 10 14.734375 10.40625 15.371094 11 15.71875 L 11 19 L 13 19 L 13 15.71875 C 13.59375 15.371094 14 14.734375 14 14 C 14 12.898438 13.101562 12 12 12 Z M 12 12 "/>
</g>
</svg>
