<?xml version="1.0" encoding="iso-8859-1"?>
<!-- Generator: Adobe Illustrator 19.0.0, SVG Export Plug-In . SVG Version: 6.00 Build 0)  -->
<svg version="1.1" id="Layer_1" xmlns="http://www.w3.org/2000/svg" xmlns:xlink="http://www.w3.org/1999/xlink" x="0px" y="0px"
	 viewBox="0 0 512.148 512.148" style="enable-background:new 0 0 512.148 512.148;" xml:space="preserve">
<g>
	
		<ellipse transform="matrix(-0.3095 -0.9509 0.9509 -0.3095 -234.0336 519.5331)" style="fill:#FFD15C;" cx="71.614" cy="344.739" rx="14.933" ry="10.667"/>
	
		<ellipse transform="matrix(0.3095 -0.9509 0.9509 0.3095 -210.5406 399.2336)" style="fill:#FFD15C;" cx="169.625" cy="344.586" rx="14.933" ry="10.667"/>
</g>
<path style="fill:#344A5E;" d="M241.141,512.148l-1.067-44.8c-1.067-17.067-10.667-30.933-25.6-38.4l-48-20.267l-45.867,14.933
	l-45.867-14.933l-48,20.267c-14.933,6.4-25.6,21.333-25.6,38.4l-1.067,44.8H241.141z"/>
<polygon style="fill:#CED6E0;" points="148.34,414.014 120.607,423.614 92.874,414.014 93.941,494.014 147.274,494.014 "/>
<polygon style="fill:#F3705A;" points="104.607,512.148 136.607,512.148 140.874,502.548 128.074,452.414 136.607,438.548 
	120.607,423.614 104.607,438.548 113.141,452.414 100.34,502.548 "/>
<path style="fill:#F7B64C;" d="M90.741,370.281v19.2c2.133,16,29.867,34.133,29.867,34.133s27.733-18.133,29.867-34.133v-19.2
	H90.741z"/>
<polygon style="fill:#E8EAE9;" points="120.607,423.614 150.474,389.481 161.141,407.614 141.941,449.214 "/>
<polygon style="fill:#415A6B;" points="145.141,512.148 184.607,454.548 167.54,442.814 192.074,426.814 156.874,399.081 
	129.141,512.148 "/>
<polygon style="fill:#E8EAE9;" points="120.607,423.614 90.741,389.481 80.074,407.614 100.34,449.214 "/>
<g>
	<polygon style="fill:#415A6B;" points="56.607,454.548 96.074,512.148 112.074,512.148 85.407,399.081 50.207,426.814 
		73.674,442.814 	"/>
	<ellipse style="fill:#415A6B;" cx="113.141" cy="310.548" rx="51.2" ry="57.6"/>
	<ellipse style="fill:#415A6B;" cx="145.141" cy="310.548" rx="35.2" ry="49.067"/>
</g>
<path style="fill:#FFD15C;" d="M135.54,288.148c-11.733,16-28.8,26.667-52.267,26.667c-5.333,0-9.6-1.067-14.933-1.067
	c0,3.2-1.067,7.467-1.067,10.667c0,40.533,23.467,74.667,52.267,74.667s52.267-33.067,52.267-74.667c0-4.267,0-8.533-1.067-11.733
	C156.874,308.414,144.074,299.881,135.54,288.148z"/>
<path style="fill:#344A5E;" d="M512.074,512.148l-1.067-44.8c-1.067-17.067-10.667-30.933-25.6-38.4l-48-20.267l-45.867,13.867
	l-45.867-13.867l-46.933,20.267c-14.933,6.4-25.6,21.333-25.6,38.4l-2.133,44.8H512.074z"/>
<polygon style="fill:#CED6E0;" points="419.274,415.081 391.541,423.614 363.807,415.081 364.874,494.014 418.207,494.014 "/>
<polygon style="fill:#F3705A;" points="375.541,512.148 407.541,512.148 411.807,503.614 399.007,452.414 407.541,439.614 
	391.541,423.614 375.541,439.614 384.074,452.414 371.274,503.614 "/>
<path style="fill:#F7B64C;" d="M361.674,370.281v19.2c2.133,16,29.867,34.133,29.867,34.133s27.733-18.133,29.867-34.133v-19.2
	H361.674z"/>
<path style="fill:#415A6B;" d="M443.807,312.681c-1.067,30.933-24.533,76.8-52.267,76.8c-27.733,0-52.267-45.867-52.267-76.8
	c-1.067-32,22.4-58.667,52.267-58.667C421.407,254.014,444.874,280.681,443.807,312.681z"/>
<g>
	<path style="fill:#FFD15C;" d="M391.541,304.148c-9.6,0-19.2-1.067-27.733-3.2c-8.533-2.133-16,5.333-17.067,14.933
		c-3.2,39.467,12.8,80,45.867,80c32,0,48-41.6,45.867-81.067c-1.067-9.6-8.533-17.067-17.067-14.933
		C410.741,303.081,401.141,304.148,391.541,304.148z"/>
	<path style="fill:#FFD15C;" d="M444.874,339.348c1.067-7.467-1.067-14.933-5.333-16c-4.267-1.067-9.6,5.333-11.733,12.8
		s1.067,14.933,5.333,16C438.474,353.214,443.807,346.814,444.874,339.348z"/>
	<path style="fill:#FFD15C;" d="M338.207,339.348c-1.067-7.467,1.067-14.933,5.333-16c4.267-1.067,9.6,5.333,11.733,12.8
		c1.067,7.467-1.067,14.933-5.333,16C344.607,353.214,339.274,346.814,338.207,339.348z"/>
</g>
<polygon style="fill:#E8EAE9;" points="391.541,423.614 421.407,389.481 432.074,407.614 412.874,450.281 "/>
<polygon style="fill:#415A6B;" points="425.674,512.148 461.941,454.548 437.407,442.814 461.941,433.214 426.741,399.081 
	402.207,512.148 "/>
<polygon style="fill:#E8EAE9;" points="391.541,423.614 361.674,389.481 351.007,407.614 370.207,450.281 "/>
<polygon style="fill:#415A6B;" points="357.407,512.148 379.807,512.148 356.341,399.081 321.141,433.214 345.674,442.814 
	321.141,454.548 "/>
<polygon style="fill:#344A5E;" points="305.141,378.814 290.207,393.748 256.074,358.548 221.941,393.748 207.007,378.814 
	245.407,339.348 245.407,284.948 266.741,284.948 266.741,339.348 "/>
<path style="fill:#F3F3F3;" d="M245.407,2.281c-18.133,9.6-56.533,29.867-91.733,40.533c-8.533,3.2-14.933,11.733-14.933,21.333v48
	c0,69.333,45.867,130.133,112,149.333c4.267,1.067,7.467,1.067,11.733,0c65.067-20.267,110.933-80,110.933-149.333v-48
	c0-9.6-6.4-18.133-14.933-20.267c-35.2-10.667-73.6-30.933-91.733-40.533C260.341-0.919,251.807-0.919,245.407,2.281z"/>
<path style="fill:#FFFFFF;" d="M343.541,131.348c1.067-6.4,1.067-12.8,1.067-19.2V69.481c-33.067-10.667-68.267-28.8-89.6-39.467
	v101.333H343.541z"/>
<path style="fill:#4EC0AA;" d="M256.074,28.948L256.074,28.948c-20.267,10.667-55.467,28.8-89.6,39.467v42.667
	c0,6.4,1.067,12.8,1.067,19.2h88.533V28.948z"/>
<path style="fill:#FFFFFF;" d="M168.607,131.348c7.467,46.933,41.6,87.467,87.467,101.333V131.348L168.607,131.348L168.607,131.348z
	"/>
<path style="fill:#4EC0AA;" d="M256.074,131.348v101.333l0,0c45.867-13.867,80-54.4,87.467-101.333L256.074,131.348L256.074,131.348
	z"/>
<g>
</g>
<g>
</g>
<g>
</g>
<g>
</g>
<g>
</g>
<g>
</g>
<g>
</g>
<g>
</g>
<g>
</g>
<g>
</g>
<g>
</g>
<g>
</g>
<g>
</g>
<g>
</g>
<g>
</g>
</svg>
